<mxfile host="app.diagrams.net" modified="2024-01-11T08:55:53.095Z" agent="Mozilla/5.0 (Windows NT 10.0; Win64; x64) AppleWebKit/537.36 (KHTML, like Gecko) Chrome/120.0.0.0 Safari/537.36" version="22.1.16" etag="CxHhKWKmKBq52spoddgc" type="github">
  <diagram name="Sayfa -1" id="e90XMY5AYiR1DDHgs7G_">
    <mxGraphModel>
      <root>
        <mxCell id="0" />
        <mxCell id="1" parent="0" />
      </root>
    </mxGraphModel>
  </diagram>
</mxfile>
